<svg width="129" height="50" viewBox="0 0 129 50" fill="none" xmlns="http://www.w3.org/2000/svg">
<path d="M49.9009 37.3297C49.6927 37.3297 49.54 37.4685 49.54 37.6905C49.54 37.8987 49.6927 38.0375 49.9009 38.0375C50.109 38.0375 50.2617 37.8987 50.2617 37.6905C50.2617 37.4685 50.109 37.3297 49.9009 37.3297Z" fill="#28505B"/>
<path d="M58.1722 37.3297C57.964 37.3297 57.8113 37.4685 57.8113 37.6905C57.8113 37.8987 57.964 38.0375 58.1722 38.0375C58.3803 38.0375 58.533 37.8987 58.533 37.6905C58.533 37.4685 58.3803 37.3297 58.1722 37.3297Z" fill="#28505B"/>
<path d="M9.8627 36.8162H9.47411C9.43248 36.8162 9.39085 36.8301 9.37697 36.8717L5.47724 43.7414L1.59138 36.8717C1.56363 36.8301 1.52199 36.8162 1.48036 36.8162H1.09178C1.03626 36.8162 0.994629 36.844 0.994629 36.8995V46.6558C0.994629 46.7113 1.03626 46.739 1.09178 46.739H1.38321C1.42485 46.739 1.46648 46.7113 1.46648 46.6558L1.4526 37.5379V37.524L5.25519 44.2549C5.28295 44.2826 5.32458 44.3104 5.36621 44.3104H5.58826C5.6299 44.3104 5.68541 44.2826 5.69929 44.2549L9.50187 37.524V37.5379L9.48799 46.6558C9.48799 46.7113 9.52963 46.739 9.57126 46.739H9.8627C9.91821 46.739 9.95985 46.7113 9.95985 46.6558V36.8995C9.95985 36.844 9.91821 36.8162 9.8627 36.8162Z" fill="#28505B"/>
<path d="M18.6197 39.6057H18.3422C18.2867 39.6057 18.2589 39.6473 18.2589 39.7029V45.5455C17.6483 45.8647 16.9544 46.059 16.1911 46.059C14.6923 46.059 13.7208 45.3512 13.7208 43.783V39.7029C13.7208 39.6473 13.6792 39.6057 13.6237 39.6057H13.36C13.3045 39.6057 13.2767 39.6473 13.2767 39.7029V43.7969C13.2767 45.601 14.4425 46.4753 16.1495 46.4753C16.9127 46.4753 17.6483 46.2949 18.2589 45.9757V46.9333C18.2728 48.2379 17.5789 49.0983 16.0246 49.0983C15.0253 49.0983 14.3176 48.6542 13.693 48.113C13.6514 48.0713 13.6098 48.0852 13.582 48.1268L13.4294 48.3072C13.4016 48.3489 13.4016 48.4044 13.4294 48.4321C14.151 49.0844 14.9698 49.5146 16.0246 49.5146C17.8703 49.5146 18.703 48.446 18.703 46.9472V39.7029C18.703 39.6473 18.6753 39.6057 18.6197 39.6057Z" fill="#28505B"/>
<path d="M27.7376 36.8162H22.1864C22.1309 36.8162 22.0893 36.844 22.0893 36.8995V46.6558C22.0893 46.7113 22.1309 46.739 22.1864 46.739H22.4778C22.5195 46.739 22.5611 46.7113 22.5611 46.6558V42.0482H27.349C27.4045 42.0482 27.4323 42.0205 27.4323 41.965V41.7013C27.4323 41.6597 27.4045 41.618 27.349 41.618H22.5611V37.2464H27.7376C27.7931 37.2464 27.8348 37.2187 27.8348 37.1632V36.8995C27.8348 36.844 27.7931 36.8162 27.7376 36.8162Z" fill="#28505B"/>
<path d="M32.8447 39.4669C31.221 39.4669 30.083 40.4245 30.083 42.1038V44.352C30.083 45.948 31.3875 46.8778 32.8447 46.8778C34.0244 46.8778 34.8848 46.3504 35.4677 45.8092C35.5232 45.7814 35.5232 45.7398 35.4816 45.6982L35.3289 45.5178C35.3012 45.4761 35.2595 45.4761 35.2179 45.5039C34.6905 45.9757 33.9411 46.4753 32.8586 46.4753C31.5957 46.4753 30.5271 45.6982 30.5271 44.352V43.4361H35.5232C35.5648 43.4361 35.6065 43.4083 35.6065 43.3528V42.1038C35.6065 40.4245 34.4685 39.4669 32.8447 39.4669ZM35.1624 43.0475H30.5271V42.1038C30.5271 40.6743 31.4431 39.8833 32.8447 39.8833C34.2464 39.8833 35.1624 40.6882 35.1624 42.1038V43.0475Z" fill="#28505B"/>
<path d="M42.143 39.5918C41.6989 39.5224 41.2132 39.4669 40.7414 39.4669C39.9503 39.4669 39.076 39.6335 38.4098 39.9527C38.3682 39.9665 38.3405 40.0082 38.3405 40.0498V46.6558C38.3405 46.7113 38.3821 46.739 38.4237 46.739H38.7013C38.7568 46.739 38.7845 46.7113 38.7845 46.6558V40.2441C39.3813 40.0082 40.103 39.8833 40.7691 39.8833C41.2271 39.8833 41.7128 39.9249 42.143 39.9943C42.1985 40.0082 42.2263 39.9804 42.2263 39.9249V39.689C42.2263 39.6335 42.2124 39.6057 42.143 39.5918Z" fill="#28505B"/>
<path d="M47.4167 46.3921C47.1391 46.4198 46.7922 46.4337 46.584 46.4337C45.4738 46.4337 44.8909 45.7537 44.8909 44.5879V40.0359H47.2363C47.2779 40.0359 47.3195 39.9943 47.3195 39.9388V39.7029C47.3195 39.6612 47.2779 39.6196 47.2363 39.6196H44.8909V37.8987C44.877 37.8432 44.8493 37.8154 44.7937 37.8154H44.5301C44.4745 37.8154 44.4468 37.8432 44.4468 37.8987V44.6018C44.4468 46.0312 45.2517 46.8501 46.584 46.8501C46.7783 46.8501 47.153 46.8362 47.4167 46.8084C47.4722 46.7945 47.5 46.7668 47.5 46.7113V46.4753C47.5 46.4198 47.4722 46.3921 47.4167 46.3921Z" fill="#28505B"/>
<path d="M50.0396 39.6057H49.7621C49.7066 39.6057 49.6788 39.6473 49.6788 39.7029V46.6558C49.6788 46.7113 49.7066 46.739 49.7621 46.739H50.0396C50.0952 46.739 50.1229 46.7113 50.1229 46.6558V39.7029C50.1229 39.6473 50.0952 39.6057 50.0396 39.6057Z" fill="#28505B"/>
<path d="M55.7435 46.406C55.466 46.4476 55.1468 46.4615 54.9525 46.4615C54.1337 46.4615 53.6202 45.948 53.6202 44.6296V36.8995C53.6202 36.844 53.5924 36.8162 53.5369 36.8162H53.2594C53.2038 36.8162 53.1761 36.844 53.1761 36.8995V44.5879C53.1761 46.2117 53.87 46.8778 54.9386 46.8778C55.1606 46.8778 55.5076 46.8501 55.7435 46.8223C55.799 46.8084 55.8268 46.7668 55.8268 46.7113V46.4753C55.8268 46.4198 55.799 46.406 55.7435 46.406Z" fill="#28505B"/>
<path d="M58.311 39.6057H58.0334C57.9779 39.6057 57.9501 39.6473 57.9501 39.7029V46.6558C57.9501 46.7113 57.9779 46.739 58.0334 46.739H58.311C58.3665 46.739 58.3942 46.7113 58.3942 46.6558V39.7029C58.3942 39.6473 58.3665 39.6057 58.311 39.6057Z" fill="#28505B"/>
<path d="M64.4173 46.3921C64.1397 46.4198 63.7928 46.4337 63.5846 46.4337C62.4744 46.4337 61.8915 45.7537 61.8915 44.5879V40.0359H64.2369C64.2785 40.0359 64.3202 39.9943 64.3202 39.9388V39.7029C64.3202 39.6612 64.2785 39.6196 64.2369 39.6196H61.8915V37.8987C61.8776 37.8432 61.8499 37.8154 61.7943 37.8154H61.5307C61.4752 37.8154 61.4474 37.8432 61.4474 37.8987V44.6018C61.4474 46.0312 62.2523 46.8501 63.5846 46.8501C63.7789 46.8501 64.1536 46.8362 64.4173 46.8084C64.4728 46.7945 64.5006 46.7668 64.5006 46.7113V46.4753C64.5006 46.4198 64.4728 46.3921 64.4173 46.3921Z" fill="#28505B"/>
<path d="M71.9531 39.6057H71.6755C71.62 39.6057 71.5923 39.6473 71.5923 39.7029V45.5455C70.9816 45.8647 70.2877 46.059 69.5244 46.059C68.0256 46.059 67.0541 45.3512 67.0541 43.783V39.7029C67.0541 39.6473 67.0125 39.6057 66.957 39.6057H66.6933C66.6378 39.6057 66.61 39.6473 66.61 39.7029V43.7969C66.61 45.601 67.7758 46.4753 69.4828 46.4753C70.2461 46.4753 70.9816 46.2949 71.5923 45.9757V46.9333C71.6061 48.2379 70.9122 49.0983 69.3579 49.0983C68.3587 49.0983 67.6509 48.6542 67.0264 48.113C66.9847 48.0713 66.9431 48.0852 66.9153 48.1268L66.7627 48.3072C66.7349 48.3489 66.7349 48.4044 66.7627 48.4321C67.4843 49.0844 68.3032 49.5146 69.3579 49.5146C71.2037 49.5146 72.0363 48.446 72.0363 46.9472V39.7029C72.0363 39.6473 72.0086 39.6057 71.9531 39.6057Z" fill="#28505B"/>
<path d="M80.477 36.8162H80.1855C80.13 36.8162 80.1023 36.844 80.1023 36.8995V43.9079C80.1023 45.6704 79.3945 46.4337 77.9373 46.4337C77.0075 46.4337 76.2997 46.059 75.5919 45.4067C75.5364 45.3651 75.4948 45.3651 75.467 45.4206L75.3143 45.6288C75.2866 45.6704 75.2866 45.7259 75.3282 45.7537C76.0915 46.4615 76.8826 46.8778 77.9373 46.8778C79.6582 46.8778 80.5602 45.9063 80.5602 43.9079V36.8995C80.5602 36.844 80.5325 36.8162 80.477 36.8162Z" fill="#28505B"/>
<path d="M86.5 39.4669C84.6265 39.4669 83.6134 40.6188 83.6134 42.076V44.2687C83.6134 45.7398 84.6265 46.8778 86.5 46.8778C88.3736 46.8778 89.3867 45.7398 89.3867 44.2687V42.076C89.3867 40.6188 88.3875 39.4669 86.5 39.4669ZM88.9426 44.2687C88.9426 45.5039 88.1377 46.4753 86.5 46.4753C84.8624 46.4753 84.0575 45.5039 84.0575 44.2687V42.076C84.0575 40.8547 84.8763 39.8833 86.5 39.8833C88.1238 39.8833 88.9426 40.8547 88.9426 42.076V44.2687Z" fill="#28505B"/>
<path d="M97.5192 39.6057H97.2555C97.2 39.6057 97.1584 39.6473 97.1584 39.7029V46.059C96.5477 46.2949 95.8261 46.4753 95.0628 46.4753C93.5085 46.4753 92.6203 45.6843 92.6203 44.0744V39.7029C92.6203 39.6473 92.5925 39.6057 92.537 39.6057H92.2594C92.2039 39.6057 92.1762 39.6473 92.1762 39.7029V44.0744C92.1762 45.9341 93.2725 46.8778 95.0628 46.8778C95.951 46.8778 96.8114 46.6835 97.5331 46.3504C97.5886 46.3366 97.6025 46.281 97.6025 46.2394V39.7029C97.6025 39.6473 97.5747 39.6057 97.5192 39.6057Z" fill="#28505B"/>
<path d="M104.486 39.5918C104.042 39.5224 103.556 39.4669 103.084 39.4669C102.293 39.4669 101.419 39.6335 100.753 39.9527C100.711 39.9665 100.683 40.0082 100.683 40.0498V46.6558C100.683 46.7113 100.725 46.739 100.767 46.739H101.044C101.1 46.739 101.128 46.7113 101.128 46.6558V40.2441C101.724 40.0082 102.446 39.8833 103.112 39.8833C103.57 39.8833 104.056 39.9249 104.486 39.9943C104.542 40.0082 104.569 39.9804 104.569 39.9249V39.689C104.569 39.6335 104.555 39.6057 104.486 39.5918Z" fill="#28505B"/>
<path d="M109.427 39.4669C108.525 39.4669 107.65 39.6612 106.901 39.9943C106.859 40.0221 106.831 40.0637 106.831 40.1053V46.6558C106.831 46.7113 106.873 46.739 106.915 46.739H107.192C107.248 46.739 107.275 46.7113 107.275 46.6558V40.2857C107.886 40.0498 108.663 39.8833 109.427 39.8833C111.023 39.8833 111.925 40.6743 111.925 42.2842V46.6558C111.925 46.7113 111.966 46.739 112.022 46.739H112.285C112.341 46.739 112.369 46.7113 112.369 46.6558V42.2703C112.369 40.3968 111.272 39.4669 109.427 39.4669Z" fill="#28505B"/>
<path d="M117.906 39.4669C116.282 39.4669 115.144 40.4245 115.144 42.1038V44.352C115.144 45.948 116.449 46.8778 117.906 46.8778C119.086 46.8778 119.946 46.3504 120.529 45.8092C120.585 45.7814 120.585 45.7398 120.543 45.6982L120.39 45.5178C120.362 45.4761 120.321 45.4761 120.279 45.5039C119.752 45.9757 119.002 46.4753 117.92 46.4753C116.657 46.4753 115.588 45.6982 115.588 44.352V43.4361H120.585C120.626 43.4361 120.668 43.4083 120.668 43.3528V42.1038C120.668 40.4245 119.53 39.4669 117.906 39.4669ZM120.224 43.0475H115.588V42.1038C115.588 40.6743 116.504 39.8833 117.906 39.8833C119.308 39.8833 120.224 40.6882 120.224 42.1038V43.0475Z" fill="#28505B"/>
<path d="M128.689 39.6057H128.412C128.356 39.6057 128.328 39.6473 128.328 39.7029V45.5455C127.718 45.8647 127.024 46.059 126.261 46.059C124.762 46.059 123.79 45.3512 123.79 43.783V39.7029C123.79 39.6473 123.749 39.6057 123.693 39.6057H123.43C123.374 39.6057 123.346 39.6473 123.346 39.7029V43.7969C123.346 45.601 124.512 46.4753 126.219 46.4753C126.982 46.4753 127.718 46.2949 128.328 45.9757V46.9333C128.342 48.2379 127.648 49.0983 126.094 49.0983C125.095 49.0983 124.387 48.6542 123.763 48.113C123.721 48.0713 123.679 48.0852 123.652 48.1268L123.499 48.3072C123.471 48.3489 123.471 48.4044 123.499 48.4321C124.221 49.0844 125.039 49.5146 126.094 49.5146C127.94 49.5146 128.773 48.446 128.773 46.9472V39.7029C128.773 39.6473 128.745 39.6057 128.689 39.6057Z" fill="#28505B"/>
<path d="M72.0336 33.652C72.0613 33.4577 72.0336 33.2856 71.9531 33.1496C71.8226 32.9359 71.6034 32.8721 71.4451 32.8277C71.3896 32.8138 71.3397 32.7999 71.2953 32.7777C70.7901 32.5307 70.9955 30.8209 71.1037 29.9022C71.1176 29.7745 71.1343 29.6552 71.1454 29.5469C71.2786 28.3118 71.2564 27.0266 71.0788 25.7193L71.2758 25.711C71.3563 25.7082 71.4202 25.6472 71.434 25.5695C71.5284 24.9255 71.6034 24.2621 71.6533 23.6015C71.7366 22.5246 71.7588 21.4282 71.7172 20.3319C72.2362 21.3283 72.9634 22.0666 73.3076 22.1915C73.3492 22.2054 73.3881 22.2137 73.4242 22.2137C73.4686 22.2137 73.5074 22.2026 73.5407 22.1804C73.6962 22.0833 73.6434 21.9195 73.5574 21.6447C73.488 21.4227 73.3797 21.0841 73.2937 20.6011C73.2493 20.3458 73.2215 20.0904 73.2021 19.8295C73.8349 20.3818 74.3623 21.0064 74.7564 21.7003C74.8314 21.8363 74.9036 21.9667 74.9563 22.0805C75.0007 22.2193 75.0063 22.3359 75.0118 22.4358C75.0201 22.5857 75.0257 22.7411 75.1617 22.8799C75.2616 22.9798 75.4143 23.0464 75.553 23.0464C75.628 23.0464 75.6974 23.027 75.7529 22.9826C75.8806 22.8771 75.8556 22.7189 75.8362 22.6134L75.8306 22.5773C75.8722 22.5884 75.9277 22.6107 75.9666 22.6245C76.122 22.6828 76.2969 22.7467 76.4163 22.619C76.519 22.508 76.4662 22.3636 76.4301 22.2693L76.4052 22.1999C76.4329 22.1999 76.469 22.1999 76.494 22.1999C76.6022 22.2054 76.7688 22.2137 76.8465 22.075C76.9797 21.8446 76.6799 21.5531 76.5856 21.4699C76.4135 21.3172 76.1998 21.2228 75.9444 21.1868C75.3199 20.232 74.6399 19.2882 73.9182 18.3834C73.6351 18.0281 73.3575 17.6923 73.0855 17.3786C73.1882 16.7597 73.7489 12.649 71.1093 10.5312C70.2655 9.85673 69.3357 9.47369 68.342 9.39875C67.1069 9.30438 65.844 9.7124 64.7809 10.5534C63.271 11.7414 62.4383 13.762 62.6576 15.6966C62.7492 16.5099 63.0323 17.2648 63.3515 17.8588C62.9351 18.2196 62.5132 18.6082 62.0913 19.0246C61.6334 19.4742 61.1948 19.935 60.7812 20.4013C60.5897 20.3957 60.3399 20.4262 60.104 20.5734C59.9958 20.64 59.6544 20.8759 59.7459 21.1257C59.8042 21.2756 59.968 21.295 60.0762 21.3089C60.1012 21.3117 60.1345 21.3144 60.1595 21.32L60.1234 21.3811C60.0735 21.4671 59.9958 21.6003 60.0762 21.7252C60.1262 21.803 60.1984 21.8307 60.2816 21.8335C60.1318 22.6218 59.9125 23.4045 59.621 24.1622C59.6044 24.2039 59.5877 24.2483 59.5711 24.2899C59.5489 23.8847 59.4351 23.4295 59.1242 23.0103C59.1076 22.9854 58.8578 22.6079 58.3387 22.322C58.6857 22.1305 58.916 21.7363 58.9105 21.3366C58.9105 21.2589 58.8966 21.1757 58.8716 21.0924C59.0021 21.0258 59.1298 20.9314 59.2463 20.801C59.5267 20.4845 59.5766 20.1182 59.5877 19.9766C59.5933 19.885 59.5239 19.8045 59.4323 19.799C59.3379 19.7934 59.2602 19.8628 59.2547 19.9544C59.2463 20.0626 59.2075 20.3402 58.9965 20.5789C58.9105 20.6761 58.8133 20.7454 58.7134 20.7982C58.6551 20.7316 58.583 20.6761 58.4942 20.64C58.3332 20.5734 58.1305 20.6011 57.9807 20.7121C57.8502 20.8093 57.7808 20.9481 57.7947 21.0979C57.8002 21.1757 57.8613 21.2367 57.9362 21.2478C57.9834 21.2534 58.2471 21.2867 58.5552 21.209C58.5663 21.2534 58.5719 21.2978 58.5719 21.3394C58.5774 21.6364 58.3915 21.9279 58.125 22.0528C58.0612 22.0805 57.9945 22.0999 57.9251 22.111C57.9418 22.075 57.9585 22.0361 57.9723 21.9972C58.0084 21.8973 58.0417 21.7696 57.9862 21.6364C57.9085 21.456 57.7031 21.3727 57.4228 21.4116C57.3506 21.4227 57.1036 21.4699 56.9731 21.642C56.9148 21.7225 56.8898 21.8141 56.9065 21.9084C56.9121 21.9417 56.9232 21.975 56.937 22.0083C56.8316 22.0222 56.7178 22.0528 56.6151 22.1221C56.4346 22.247 56.3208 22.5135 56.4513 22.7328C56.5984 22.977 56.9287 22.9687 57.1757 22.8549C57.3811 22.7605 57.5615 22.619 57.7059 22.4469C57.7364 22.4469 57.7669 22.4524 57.7975 22.4524C58.4886 22.6828 58.8161 23.1686 58.8383 23.2019C59.5572 24.1705 59.0715 25.3752 59.0659 25.3863C59.0326 25.4695 59.0687 25.5639 59.1492 25.6L59.2186 25.6139C59.2796 25.6139 59.3379 25.5806 59.3685 25.5223C59.5628 25.1392 59.7487 24.7201 59.918 24.2788C60.24 23.4433 60.4787 22.5773 60.6314 21.7058C60.6369 21.678 60.6314 21.6531 60.6258 21.6309V21.6142C60.6092 21.5254 60.5259 21.4643 60.4343 21.481C60.4815 21.3922 60.5203 21.2784 60.4621 21.1618C60.3899 21.0091 60.2206 20.9869 60.1068 20.973C60.1456 20.9342 60.2011 20.8898 60.265 20.8509C60.4621 20.7288 60.6758 20.7205 60.8229 20.7343C60.8756 20.7371 60.9284 20.7177 60.9644 20.6788C61.3863 20.1986 61.8388 19.7212 62.3106 19.2577C62.7103 18.8636 63.1128 18.4972 63.5069 18.1502C63.7872 18.6082 64.0731 18.933 64.2646 19.0468C64.3313 19.0856 64.3923 19.1051 64.4478 19.1051C64.4784 19.1051 64.5089 19.0995 64.5366 19.0884C64.742 19.0024 64.6838 18.7748 64.5866 18.3973C64.5228 18.1447 64.434 17.7922 64.3729 17.3537L64.3951 17.337L64.4478 17.2926C64.5228 17.2315 64.681 17.1038 64.9169 16.9956C64.9752 16.9678 65.114 16.904 65.5942 16.7902C65.8245 16.7347 66.0521 16.6903 66.2853 16.6514C66.7377 16.8818 67.1957 16.9651 67.5426 17.0261C67.8202 17.0761 68.0894 17.0955 68.3448 17.0955C69.1414 17.0955 69.8186 16.8929 70.2905 16.6931C70.3765 16.657 70.4154 16.5598 70.3793 16.4738C70.3432 16.3877 70.2461 16.3489 70.16 16.385C69.5799 16.6292 68.664 16.8846 67.5954 16.6958C67.0985 16.607 66.3519 16.4738 65.7857 15.8687C65.0973 15.1332 64.8947 13.9619 65.2805 12.9543C65.3277 12.835 65.5359 12.3631 65.9689 11.9329C65.9994 11.9051 66.0272 11.8774 66.0577 11.8496C66.0854 11.8246 66.1132 11.8024 66.141 11.7802C66.2076 11.7247 66.2686 11.6775 66.3214 11.6414C66.3963 11.5887 66.4712 11.536 66.5545 11.4888C67.093 11.189 67.8368 11.0225 68.7695 10.992C68.8805 10.9892 68.9304 10.9864 68.9804 10.9253L68.8527 10.8199L68.8277 10.6561C68.8277 10.6561 68.7917 10.6561 68.7584 10.6589C67.773 10.6922 66.9764 10.8726 66.3935 11.2001C66.3269 11.2362 66.2659 11.2806 66.2048 11.3222L66.1798 11.3334L66.1354 11.3667C66.0521 11.4249 65.9744 11.486 65.9023 11.5471L65.8689 11.5748L65.8606 11.5832C65.8162 11.6248 65.7718 11.6636 65.7302 11.7053C64.2147 13.1181 63.9954 15.3025 63.976 16.1962C63.9538 17.2454 64.1536 18.0198 64.2702 18.4833C64.2868 18.5444 64.3007 18.6082 64.3146 18.6665C63.9371 18.3029 63.1461 17.1094 62.9823 15.6605C62.7769 13.837 63.5624 11.9357 64.9835 10.8171C65.98 10.0288 67.1596 9.64578 68.3115 9.7346C69.2358 9.80399 70.1045 10.162 70.8956 10.7949C73.5407 12.9155 72.7747 17.2149 72.7413 17.3953C72.733 17.4452 72.7413 17.498 72.7774 17.5368C73.0633 17.8644 73.3575 18.2196 73.6545 18.5943C74.3845 19.5103 75.0756 20.4679 75.7057 21.4366C75.7335 21.4782 75.7779 21.506 75.8306 21.5115C76.0471 21.5309 76.2275 21.6031 76.3635 21.7225C76.419 21.7696 76.4634 21.8252 76.4967 21.8696C76.3802 21.864 76.2109 21.8585 76.1165 21.9972C76.0415 22.1055 76.0638 22.2221 76.0943 22.3192L76.0832 22.3137C75.9222 22.2554 75.7251 22.1804 75.5836 22.3081C75.467 22.4136 75.492 22.569 75.5086 22.6689L75.5142 22.7106C75.4781 22.7022 75.4309 22.68 75.3976 22.6467C75.356 22.6051 75.3504 22.5579 75.3421 22.4219C75.3365 22.3053 75.3282 22.161 75.2644 21.9612C75.1978 21.8224 75.1256 21.6808 75.0451 21.5393C74.5733 20.7066 73.9265 19.9627 73.1299 19.3271C73.0994 19.2938 73.055 19.2716 73.005 19.2771H72.9995L72.9634 19.2883L72.9384 19.2966L72.9134 19.316L72.8885 19.3382L72.8829 19.3438L72.8718 19.3632L72.8551 19.3937L72.8496 19.427V19.4492C72.8579 19.8656 72.8968 20.2625 72.9662 20.6594C73.055 21.1646 73.166 21.5143 73.2382 21.7447L73.2465 21.7724C72.8552 21.4727 72.053 20.5678 71.6644 19.3465L71.6478 19.291C71.4174 18.5361 71.3702 17.7339 71.509 16.9068C71.5229 16.8152 71.4618 16.7291 71.373 16.7153C71.2814 16.7014 71.1953 16.7624 71.1815 16.8513C71.0316 17.7422 71.0843 18.6054 71.3397 19.4215C71.434 20.8148 71.4257 22.211 71.3202 23.5766C71.2731 24.1844 71.2064 24.7923 71.1232 25.3835L70.8789 25.3918C70.8317 25.3918 70.7873 25.4168 70.7568 25.4529C70.7263 25.489 70.7124 25.5361 70.7207 25.5833C70.9178 26.9267 70.9483 28.2479 70.8123 29.5108C70.8012 29.6191 70.7873 29.7356 70.7707 29.8605C70.6263 31.0707 70.4265 32.725 71.1454 33.0747C71.2092 33.1052 71.2814 33.1274 71.3508 33.1441C71.5062 33.1885 71.6061 33.2218 71.6644 33.3162C71.7144 33.3967 71.7227 33.5077 71.6949 33.6465H69.7964L69.7465 32.3336C69.7159 31.5231 69.6854 30.7154 69.6826 30.6349C69.6021 28.5116 69.555 27.2293 68.8583 26.9739C68.7528 26.9323 68.6057 26.9351 68.2837 26.9378H68.2227C67.8369 26.9434 67.2512 26.9517 66.9459 27.0933C66.3352 27.3764 66.3047 28.3451 66.2575 29.8134C66.2464 30.1464 66.2353 30.5073 66.2159 30.8903C66.1715 31.7813 66.0882 32.7083 65.9689 33.6437H64.2119C64.1841 33.5049 64.1952 33.3939 64.2424 33.3134C64.3007 33.2163 64.4006 33.1829 64.5561 33.1385C64.6255 33.1191 64.6949 33.0997 64.7615 33.0664C65.4804 32.7166 65.2805 31.0596 65.1362 29.8522C65.1223 29.7273 65.1084 29.608 65.0945 29.5025C64.9585 28.2396 64.9891 26.9184 65.1861 25.575C65.1917 25.5278 65.1806 25.4806 65.1501 25.4446C65.1195 25.4085 65.0751 25.3863 65.0279 25.3835L64.8031 25.3752C64.792 24.6146 64.8114 23.8375 64.8558 23.0659C64.903 22.2554 64.9696 21.6392 65.0224 21.1424C65.1306 20.1293 65.1806 19.6657 64.8142 19.4104C64.087 18.9052 62.4882 19.9377 61.6139 20.8814C61.3974 21.1174 61.3114 21.2756 61.3058 21.2839C61.2198 21.4504 61.1865 21.592 61.1615 21.7058C61.131 21.839 61.1171 21.8834 61.0699 21.9195C61.0449 21.939 61.0116 21.9528 60.9755 21.9584C60.92 21.9695 60.8784 22.0083 60.859 22.0583L60.8451 22.0888C60.4038 23.9318 59.9597 25.7776 59.5156 27.6206L59.4795 27.7677C59.4712 27.8121 59.2685 28.903 59.1353 31.8257C59.1242 32.081 59.1353 32.2726 59.152 32.5362C59.1686 32.7638 59.1769 32.8665 59.2158 32.9498C59.3102 33.1496 59.4712 33.2246 59.6127 33.2912C59.7182 33.3384 59.8153 33.3856 59.9042 33.4855C59.9458 33.5299 59.9791 33.5854 60.0069 33.6465H58.2305C58.2027 33.5466 58.175 33.43 58.1472 33.2967C58.1056 33.1108 58.0834 32.9692 58.0639 32.861C58.0251 32.6223 58.0029 32.4918 57.8696 32.3614C57.6698 32.1643 57.4061 32.1643 56.9592 32.1615C56.4985 32.1588 56.1626 32.156 55.935 32.403C55.8268 32.5196 55.8074 32.6251 55.7546 32.9054C55.7407 32.9803 55.7241 33.0719 55.7019 33.183C55.663 33.3634 55.6297 33.5188 55.5992 33.6493H54.1281C54.092 33.4661 54.0837 33.2745 54.1753 33.1691C54.2142 33.1247 54.2752 33.0941 54.3446 33.058C54.4695 32.9942 54.6277 32.9165 54.711 32.7194C54.7582 32.6084 54.7776 32.4863 54.7665 32.3586C54.7304 31.8701 54.7554 31.7119 54.7832 31.6675C54.8026 31.6369 54.8192 31.6175 54.8331 31.5981C55.4743 30.8625 54.3835 27.0877 54.1559 26.3327C53.7784 25.2586 53.5452 24.1511 53.4592 23.0409C53.4425 22.7994 53.4314 22.5635 53.4259 22.3331C53.4259 22.2526 53.3593 22.1832 53.2871 22.1749L53.2621 22.1416C53.2205 22.1027 53.2122 22.0555 53.2011 21.9251C53.19 21.8085 53.1789 21.6642 53.1122 21.4838C53.1067 21.4671 53.0429 21.3033 52.8624 21.0424C52.5821 20.6427 51.5079 19.6019 50.1257 18.3945C50.0729 18.3473 49.9952 18.339 49.9342 18.3751C49.8731 18.4112 49.8398 18.4805 49.8537 18.5499C50.1423 20.0543 50.3311 21.5781 50.4171 23.0797C50.4588 23.8264 50.4782 24.5813 50.4699 25.389L50.2478 25.3974C50.2006 25.3974 50.1562 25.4223 50.1257 25.4584C50.0952 25.4945 50.0813 25.5417 50.0896 25.5889C50.2867 26.9295 50.3172 28.2507 50.1812 29.5164C50.1701 29.6246 50.1562 29.7412 50.1396 29.8661C49.9952 31.0763 49.7954 32.7305 50.5143 33.0803C50.5781 33.1108 50.6503 33.133 50.7197 33.1496C50.8751 33.1941 50.975 33.2274 51.0333 33.3217C51.0805 33.4022 51.0916 33.5105 51.0638 33.6493H48.7545C48.6352 32.7139 48.5519 31.7896 48.5075 30.8958C48.4881 30.51 48.477 30.1492 48.4659 29.8189C48.4187 28.3506 48.3882 27.3819 47.7775 27.0988C47.4722 26.9573 46.8893 26.9489 46.5007 26.9434H46.4397C46.1205 26.9434 45.9762 26.9378 45.8679 26.9795C45.1462 27.2348 45.0991 28.6004 45.0241 30.6655C44.9769 31.9617 44.9436 33.0025 44.9242 33.652H42.4733C42.4484 33.516 42.4567 33.405 42.5039 33.3245C42.5622 33.2274 42.6621 33.1941 42.8175 33.1496C42.8869 33.1302 42.9563 33.1108 43.0229 33.0775C43.7418 32.7278 43.5419 31.0735 43.3976 29.8633C43.3837 29.7356 43.3671 29.6191 43.356 29.5108C43.22 28.2479 43.2505 26.9267 43.4476 25.5833C43.4531 25.5361 43.442 25.489 43.4115 25.4529C43.381 25.4168 43.3365 25.3946 43.2894 25.3918L43.0479 25.3835C42.9618 24.7867 42.8952 24.1789 42.8508 23.5738C42.7204 21.8834 42.7453 20.157 42.9285 18.4417C42.9369 18.364 42.8897 18.2918 42.8175 18.2668C42.7453 18.2418 42.6648 18.2668 42.6232 18.3362C42.2985 18.8497 42.0098 19.2383 41.8211 19.4881L41.7267 19.6102C41.4019 20.0293 40.7275 20.9009 40.3722 21.5365C40.2279 21.8002 40.1862 21.9251 40.1696 22.0028C40.1252 22.186 40.1279 22.3303 40.1307 22.4469C40.1307 22.5829 40.1307 22.6301 40.0919 22.6745C40.0586 22.7134 40.0086 22.7383 39.9808 22.7522V22.705C39.9947 22.6023 40.0086 22.4469 39.8837 22.3497C39.7338 22.2332 39.5395 22.322 39.3869 22.3914L39.3758 22.3969C39.4007 22.2998 39.4118 22.1804 39.3313 22.0805C39.2259 21.9501 39.0566 21.9667 38.94 21.9806C38.9705 21.9334 39.0121 21.8779 39.0649 21.8252C39.2259 21.6614 39.434 21.6003 39.5784 21.5781C39.6339 21.5698 39.6811 21.5337 39.7033 21.4838C40.4055 19.9988 40.9273 18.8802 41.4019 17.8422C41.7683 17.0483 42.082 16.3628 42.8369 15.9242C43.1922 15.7188 43.5891 15.5995 44.0499 15.5606C44.1109 15.5551 44.1665 15.5162 44.1887 15.4579C44.2136 15.3996 44.2025 15.3358 44.1637 15.2858C43.7973 14.8473 43.5114 14.3949 43.2921 13.898C42.4706 12.0467 42.8841 10.3452 43.0201 9.78734C43.2116 8.99906 43.5003 8.37733 43.6807 8.08867C43.6807 8.17471 43.6807 8.2663 43.6807 8.33847C43.6724 8.74093 43.6668 8.98519 43.8722 9.02682C44.0638 9.06568 44.1442 8.86306 44.2664 8.55774C44.3247 8.41064 44.5023 7.95821 44.6022 7.95266C44.6938 7.95544 44.8798 8.36623 44.9603 8.54109C45.1351 8.92135 45.2878 9.24887 45.5515 9.21834C45.7319 9.19613 45.7957 9.03515 45.8679 8.84641C45.929 8.6882 46.0122 8.46892 46.1926 8.21912C46.4314 7.8916 46.5868 7.77225 46.6478 7.74449C46.6923 7.85551 46.6728 8.20524 46.6645 8.39953C46.6423 8.84641 46.6256 9.16838 46.8588 9.24609C47.1058 9.32659 47.3084 9.00184 47.5888 8.55774C47.6831 8.40786 47.8247 8.17748 47.9246 8.06646C47.9413 8.21357 47.9302 8.47447 47.9246 8.64379C47.9052 9.12952 47.8913 9.44871 48.1189 9.51255C48.3493 9.57362 48.4853 9.29883 48.7073 8.84086C48.8239 8.60215 49.0932 8.04703 49.2208 8.03593C49.3652 8.07479 49.6122 8.84918 49.6816 10.1426C49.7482 11.4194 49.8842 14.0784 48.3299 15.0554C47.5666 15.5356 46.4452 15.5911 46.4314 15.5911C46.0788 15.6106 45.7319 15.5911 45.3683 15.5245C45.2767 15.5079 45.1907 15.5689 45.174 15.6605C45.1573 15.7521 45.2184 15.8382 45.31 15.8548C45.6986 15.9242 46.0705 15.9464 46.4452 15.927C46.4508 15.927 46.8449 15.9103 47.339 15.7965C48.0329 15.7493 48.6796 15.8465 49.2569 16.0852C49.7732 16.3017 50.4366 16.7291 52.3878 19.3354C52.7847 19.8656 53.1816 20.4151 53.5369 20.9259C53.5674 20.9675 53.6146 20.9952 53.6674 20.998C53.8145 21.0036 54.0254 21.0397 54.2031 21.1868C54.2586 21.234 54.3085 21.2839 54.3418 21.3283C54.2253 21.3255 54.0532 21.3283 53.9616 21.4699C53.8922 21.5809 53.9172 21.6975 53.9505 21.7918C53.9005 21.778 53.8506 21.7891 53.8117 21.8168L53.7701 21.8585L53.7451 21.9001V21.9112L53.7395 21.939V21.9834C53.7756 22.1721 53.8339 22.4774 53.895 22.8549C53.956 23.2379 53.9921 23.5266 54.0199 23.7625C54.0754 24.2205 54.1115 24.4981 54.2558 24.8811C54.328 25.1947 54.4973 25.5944 54.8775 25.9691C55.1218 26.2245 55.3966 26.3966 55.663 26.5159C56.0266 26.688 56.4208 26.7741 56.826 26.7741C56.8621 26.7741 56.8982 26.7741 56.937 26.7741C57.5227 26.7602 58.1083 26.5631 58.6024 26.2106C58.6773 26.1579 58.694 26.0552 58.6413 25.9802C58.5885 25.9053 58.4858 25.8859 58.4109 25.9386C57.9251 26.2661 57.3811 26.4382 56.851 26.4438C56.8205 26.4438 56.7899 26.4438 56.7566 26.4438C56.5707 26.4354 56.2154 26.3966 55.8407 26.2384C55.7963 26.2189 55.7518 26.1967 55.7074 26.1745C55.4715 26.0469 55.2828 25.9081 55.1329 25.7637L55.1135 25.7415C54.8192 25.4307 54.6943 25.1059 54.575 24.7923C54.4307 24.14 54.6444 23.4378 55.1301 22.9548C55.4632 22.6273 55.8407 22.4885 56.096 22.4302C56.1848 22.4108 56.2431 22.3192 56.2209 22.2304C56.2015 22.1416 56.1127 22.0861 56.0211 22.1055C55.7213 22.1749 55.2828 22.3359 54.8942 22.7189C54.6388 22.9715 54.4501 23.274 54.3307 23.6015C54.303 23.3878 54.2697 23.1325 54.2197 22.8105C54.1781 22.5579 54.1392 22.3414 54.1087 22.1638C54.1725 22.161 54.2336 22.1416 54.2808 22.0833C54.3807 21.9667 54.3224 21.8252 54.2808 21.7336L54.253 21.6669C54.2808 21.6669 54.3141 21.6669 54.3391 21.6669C54.4501 21.6669 54.6138 21.6697 54.6888 21.5282C54.8137 21.295 54.5028 21.0147 54.4057 20.9342C54.1892 20.7565 53.9449 20.6927 53.7562 20.6733C53.4092 20.1792 53.029 19.6491 52.6459 19.1384C50.6447 16.4655 49.9342 16.0158 49.3763 15.7799C49.0154 15.6328 48.6324 15.5384 48.2299 15.4912C48.3215 15.4468 48.4131 15.3968 48.502 15.3441C50.2201 14.2616 50.0785 11.4721 50.0091 10.1287C49.9703 9.41818 49.8204 7.76114 49.2486 7.71118C48.9044 7.6751 48.6602 8.17471 48.4048 8.70207C48.3548 8.802 48.2966 8.92135 48.2438 9.02127C48.2438 8.90747 48.2494 8.77147 48.2521 8.66599C48.2744 8.14695 48.2882 7.76947 48.0357 7.69175C47.7858 7.61681 47.5832 7.94156 47.3001 8.39121C47.2113 8.53276 47.0781 8.74371 46.9837 8.86028C46.9781 8.74093 46.9837 8.56052 46.992 8.42729C47.017 7.94711 47.0392 7.53354 46.7616 7.43085C46.6229 7.38088 46.3869 7.38921 45.9123 8.0387C45.7097 8.31904 45.6125 8.57162 45.5487 8.73816C45.5321 8.78257 45.5126 8.83253 45.496 8.86861C45.4238 8.78257 45.3211 8.55774 45.2573 8.41341C45.0713 8.0054 44.8826 7.62236 44.5856 7.63069C44.308 7.63902 44.1442 7.96654 44.0082 8.30239C44.0166 7.92213 44.011 7.66955 43.8167 7.61681C43.7779 7.60571 43.714 7.60293 43.6419 7.64457C43.3671 7.80833 42.923 8.77702 42.6926 9.72072C42.551 10.3064 42.1153 12.0911 42.9813 14.0451C43.1756 14.4809 43.417 14.8861 43.714 15.2747C43.3282 15.3386 42.984 15.4607 42.6649 15.6439C41.8183 16.1352 41.4658 16.9012 41.0855 17.7311C40.6248 18.7331 40.1141 19.8267 39.4313 21.2756C39.1898 21.3283 38.9788 21.4393 38.8206 21.6003C38.7568 21.6642 38.4459 21.9945 38.6014 22.2221C38.693 22.3553 38.8567 22.3359 38.965 22.322C38.9899 22.3192 39.0233 22.3164 39.0482 22.3137L39.0288 22.3831C39.001 22.4802 38.9566 22.6273 39.0677 22.73C39.1953 22.8521 39.3674 22.7744 39.5173 22.705C39.5534 22.6884 39.6089 22.6634 39.6505 22.6495V22.6856C39.6367 22.7911 39.6228 22.9493 39.756 23.0464C39.9253 23.1686 40.2001 23.0686 40.3389 22.9049C40.4638 22.7605 40.461 22.6051 40.4582 22.4524C40.4582 22.3497 40.4555 22.2359 40.4888 22.0888C40.4943 22.0583 40.5165 21.9639 40.6581 21.7086C40.9995 21.0979 41.6656 20.2375 41.9848 19.8267L42.082 19.7018C42.1985 19.5492 42.354 19.341 42.5316 19.0829C42.4067 20.5983 42.4012 22.1194 42.515 23.6126C42.5649 24.2705 42.6399 24.9311 42.7342 25.5806C42.7453 25.6583 42.812 25.7193 42.8924 25.7221L43.0895 25.7304C42.9119 27.0378 42.8897 28.3229 43.0229 29.558C43.034 29.6663 43.0479 29.7856 43.0645 29.9133C43.1756 30.832 43.3782 32.5418 42.8758 32.786C42.8314 32.8082 42.7814 32.8193 42.7259 32.836C42.5677 32.8804 42.3484 32.9415 42.218 33.158C42.1347 33.2967 42.1097 33.4633 42.1375 33.6576H27.9735V30.9181C28.6841 30.9125 29.6583 30.7682 30.2967 30.1326C30.974 29.4553 31.0822 28.3756 31.0878 27.7927V27.3708H31.0906H30.6687C30.083 27.3792 29.0005 27.4846 28.3261 28.1563C28.0374 28.445 27.857 28.8058 27.7404 29.1694C27.621 28.803 27.4406 28.4422 27.1547 28.1563C26.4803 27.4846 25.3978 27.3764 24.8121 27.3736H24.3902V27.7927C24.3986 28.3756 24.5068 29.4581 25.1841 30.1326C25.828 30.7737 26.8133 30.9125 27.5267 30.9181H27.5378L27.56 30.9208V33.6604H17.2986V25.6694C21.6368 25.4945 25.1313 19.9322 25.1313 13.1125C25.1313 6.29285 21.523 0.539007 17.0904 0.539007C12.6577 0.539007 9.04945 6.17627 9.04945 13.1042C9.04945 20.0321 12.5439 25.4862 16.8822 25.661V33.652H1.06124V34.0684H128.995V33.652H72.0336ZM57.0508 22.5579C56.9398 22.6107 56.7899 22.6245 56.7511 22.5635C56.7261 22.5218 56.7594 22.4413 56.8177 22.4025C56.8815 22.3608 56.9703 22.3386 57.0952 22.3386H57.1452C57.2174 22.3414 57.2895 22.347 57.3561 22.3553C57.2673 22.4386 57.1646 22.5052 57.0536 22.5579H57.0508ZM57.6726 21.8862C57.6504 21.9445 57.6254 22 57.5949 22.0555C57.5477 22.0472 57.5005 22.0389 57.4505 22.0306C57.3978 22.0028 57.3478 21.9695 57.3034 21.9279C57.259 21.889 57.2507 21.8668 57.2562 21.8418C57.2895 21.7974 57.3867 21.7558 57.4811 21.7419C57.6032 21.7252 57.6864 21.7474 57.6948 21.7669C57.7003 21.778 57.7003 21.8057 57.6726 21.8834V21.8862ZM64.3146 16.2045C64.3257 15.6938 64.4062 14.7362 64.7754 13.7676C64.7115 14.6308 64.9835 15.4968 65.5497 16.1018C65.658 16.2156 65.769 16.31 65.8856 16.3988C65.7662 16.4238 65.6469 16.4433 65.5248 16.471C65.0751 16.5793 64.8975 16.6459 64.7837 16.6986C64.5866 16.7902 64.4395 16.8901 64.3368 16.9678C64.3174 16.7319 64.3063 16.4793 64.3118 16.2073L64.3146 16.2045ZM25.4894 29.83C24.9204 29.2638 24.826 28.3173 24.8205 27.7816C25.3589 27.7844 26.3054 27.8788 26.8716 28.4422C27.4406 29.0112 27.5378 29.9549 27.5406 30.4934C27.0021 30.4906 26.0584 30.3962 25.4894 29.83ZM16.8822 14.1034L14.8283 12.0245L14.5313 12.3159L16.8794 14.6946V25.2419C12.7715 25.0643 9.46301 19.6879 9.46301 13.1014C9.46301 6.51489 12.8853 0.955349 17.0904 0.955349C21.2954 0.955349 24.715 6.40665 24.715 13.1042C24.715 19.8017 21.4065 25.0671 17.2986 25.2447V19.8156L19.9354 17.1455L19.6384 16.854L17.2958 19.2244V9.41818H16.8794V14.1034H16.8822ZM28.6341 28.4422C29.2004 27.8788 30.1469 27.7844 30.6853 27.7816C30.6798 28.3201 30.5854 29.2638 30.0164 29.83C29.4557 30.3879 28.5287 30.4878 27.9874 30.4934V30.3352H27.9708C27.9902 29.7856 28.1179 28.9612 28.6341 28.4422ZM45.2711 33.652C45.2906 33.0025 45.3239 31.9645 45.3711 30.6766C45.4321 28.9557 45.4849 27.4707 45.9956 27.2903C46.0483 27.2709 46.2149 27.2737 46.4508 27.2765H46.5091C46.8449 27.282 47.4084 27.2903 47.6498 27.4041C48.0745 27.6012 48.1023 28.5366 48.1439 29.8328C48.155 30.1686 48.1661 30.5295 48.1855 30.9181C48.2299 31.8062 48.3132 32.725 48.4298 33.6548H45.2739L45.2711 33.652ZM53.8006 33.652H51.4108C51.4358 33.4577 51.4108 33.2884 51.3303 33.1524C51.1998 32.9387 50.9806 32.8749 50.8224 32.8304C50.7669 32.8166 50.7169 32.8027 50.6725 32.7805C50.1673 32.5335 50.3727 30.8237 50.481 29.905C50.4948 29.7773 50.5115 29.6579 50.5226 29.5497C50.6558 28.3145 50.6336 27.0294 50.456 25.7221L50.6531 25.7138C50.7419 25.711 50.8113 25.6388 50.8113 25.55C50.8224 24.6757 50.8085 23.8625 50.7613 23.0603C50.6836 21.7003 50.5226 20.3236 50.2811 18.9607C51.6106 20.1431 52.4017 20.9453 52.6015 21.2312C52.7597 21.456 52.8125 21.5948 52.8125 21.5948C52.8624 21.7336 52.8735 21.8501 52.8819 21.9528C52.8957 22.1027 52.9068 22.2554 53.0456 22.3858L53.1067 22.4219C53.1122 22.6329 53.1206 22.8466 53.1372 23.0686C53.2233 24.2094 53.4647 25.3474 53.8478 26.441C54.3474 28.1064 54.9913 30.9236 54.5778 31.3982C54.5611 31.4177 54.5361 31.451 54.5056 31.4982C54.4334 31.6175 54.3973 31.809 54.4418 32.3919C54.4473 32.4668 54.4418 32.5307 54.4112 32.5917C54.3779 32.675 54.3113 32.7111 54.2031 32.7666C54.1142 32.811 54.0143 32.861 53.931 32.9581C53.7923 33.1219 53.7506 33.3523 53.8006 33.6548V33.652ZM55.9489 33.652C55.9767 33.5355 56.0044 33.4022 56.035 33.2523C56.0572 33.1385 56.0766 33.0469 56.0905 32.9692C56.1404 32.7111 56.1488 32.675 56.1904 32.6306C56.3125 32.4974 56.529 32.4946 56.9731 32.4946C57.3756 32.4946 57.5449 32.5029 57.642 32.5973C57.692 32.6473 57.7031 32.6944 57.742 32.9165C57.7614 33.0303 57.7864 33.1746 57.828 33.3689C57.8502 33.4716 57.8724 33.5632 57.8946 33.6465H55.9489V33.652ZM63.9649 33.1496C63.8816 33.2884 63.8566 33.4577 63.8844 33.652H60.3705C60.3233 33.4994 60.2539 33.3689 60.1595 33.2662C60.0291 33.1191 59.882 33.0497 59.7626 32.997C59.6349 32.9387 59.5655 32.9026 59.5267 32.8166C59.5128 32.7833 59.5017 32.6389 59.4961 32.5251C59.4795 32.2725 59.4684 32.0921 59.4795 31.8534C59.6099 28.964 59.8153 27.8538 59.8153 27.851L59.8486 27.7122C60.2844 25.897 60.723 24.0817 61.1587 22.2665C61.2004 22.2498 61.2392 22.2304 61.2753 22.2054C61.4335 22.0944 61.4668 21.9417 61.5001 21.7946C61.5223 21.6947 61.5473 21.5837 61.6139 21.456C61.6139 21.456 61.6889 21.3228 61.8721 21.1229C62.8269 20.096 64.198 19.3909 64.6393 19.699C64.8336 19.835 64.8087 20.1709 64.706 21.1202C64.6532 21.6198 64.5866 22.2415 64.5366 23.0603C64.4895 23.893 64.4728 24.7312 64.4867 25.5528C64.4867 25.6416 64.5589 25.711 64.6449 25.7166L64.842 25.7249C64.6643 27.0322 64.6421 28.3173 64.7754 29.5525C64.7865 29.6607 64.8003 29.7801 64.817 29.9077C64.928 30.8265 65.1306 32.5362 64.6282 32.7833C64.5838 32.8055 64.5339 32.8166 64.4784 32.8332C64.3202 32.8776 64.1009 32.9387 63.9704 33.1552L63.9649 33.1496ZM66.313 33.652C66.4296 32.7222 66.5129 31.8007 66.5573 30.9153C66.5767 30.5295 66.5878 30.1659 66.5989 29.8328C66.6406 28.5366 66.6711 27.6012 67.0958 27.4041C67.3372 27.2903 67.9007 27.2848 68.2615 27.2792H68.2948C68.5196 27.2792 68.7001 27.2737 68.75 27.2931C69.2385 27.4735 69.294 28.878 69.3607 30.671C69.3607 30.7321 69.3912 31.5398 69.4217 32.353L69.4689 33.652H66.313Z" fill="#55A3B1"/>
</svg>
